<?xml version="1.0" encoding="utf-8"?>
<!-- Generator: Adobe Illustrator 23.0.0, SVG Export Plug-In . SVG Version: 6.00 Build 0)  -->
<svg version="1.1" id="레이어_1" xmlns="http://www.w3.org/2000/svg" xmlns:xlink="http://www.w3.org/1999/xlink" x="0px"
	 y="0px" viewBox="0 0 74 74" style="enable-background:new 0 0 74 74;" xml:space="preserve">
<style type="text/css">
	.st0{fill:#FFDD55;stroke:#B67300;stroke-miterlimit:10;}
	.st1{fill:url(#SVGID_1_);stroke:#B67300;stroke-miterlimit:10;}
	.st2{fill:url(#SVGID_2_);stroke:#B67300;stroke-miterlimit:10;}
	.st3{fill:#FFFFFF;stroke:#B67300;stroke-miterlimit:10;}
	.st4{fill:url(#SVGID_3_);stroke:#B67300;stroke-miterlimit:10;}
</style>
<g>
	<g>
		<polygon points="7.2,19 10.2,11 29.5,11 29.5,12.5 31.6,12.5 33.8,19 		"/>
		<path d="M29,11.5V12v1h1h1.3l1.8,5.5H7.9l2.6-7H29 M30,10.5H9.9l-3.4,9h28L32,12h-0.5H30V10.5L30,10.5z"/>
	</g>
	<g>
		<polygon points="7.5,65 7.5,63.5 6,63.5 6,20 68.5,20 68.5,21.5 70,21.5 70,65 		"/>
		<path d="M68,20.5V21v1h1h0.5v42.5H8V64v-1H7H6.5V20.5H68 M69,19.5H5.5V64H7v1.5h63.5V21H69V19.5L69,19.5z"/>
	</g>
	<polygon class="st0" points="30,10 29.5,10 28,10 28,8.5 7.9,8.5 4.5,17.5 32.5,17.5 	"/>
	<linearGradient id="SVGID_1_" gradientUnits="userSpaceOnUse" x1="36" y1="17.5" x2="36" y2="63.5">
		<stop  offset="1.198083e-07" style="stop-color:#FFDD55"/>
		<stop  offset="1" style="stop-color:#E9BB31"/>
	</linearGradient>
	<polygon class="st1" points="67,19 67,17.5 3.5,17.5 3.5,62 5,62 5,63.5 68.5,63.5 68.5,19 	"/>
</g>
</svg>
