<?xml version="1.0" ?><!DOCTYPE svg  PUBLIC '-//W3C//DTD SVG 1.1//EN'  'http://www.w3.org/Graphics/SVG/1.1/DTD/svg11.dtd'><svg enable-background="new 0 0 160 80" id="Layer_1" version="1.1" viewBox="0 0 160 80" xml:space="preserve" xmlns="http://www.w3.org/2000/svg" xmlns:xlink="http://www.w3.org/1999/xlink"><g><rect height="7" width="7" x="53" y="6"/><rect height="7" width="8" x="60" y="6"/><rect height="7" width="6" x="68" y="6"/><rect height="8" width="8" x="45" y="13"/><rect height="8" width="7" x="53" y="13"/><rect height="8" width="6" x="68" y="13"/><rect height="8" width="9" x="74" y="13"/><rect height="8" width="7" x="83" y="13"/><rect height="8" width="8" x="90" y="13"/><rect height="8" width="7" x="98" y="13"/><rect height="8" width="8" x="105" y="13"/><rect height="7" width="8" x="45" y="21"/><rect height="7" width="8" x="60" y="21"/><rect height="7" width="6" x="68" y="21"/><rect height="7" width="9" x="74" y="21"/><rect height="7" width="7" x="83" y="21"/><rect height="7" width="8" x="90" y="21"/><rect height="7" width="7" x="98" y="21"/><rect height="7" width="8" x="105" y="21"/><rect height="9" width="8" x="45" y="28"/><rect height="9" width="7" x="53" y="28"/><rect height="9" width="8" x="60" y="28"/><rect height="9" width="6" x="68" y="28"/><rect height="9" width="9" x="74" y="28"/><rect height="9" width="7" x="83" y="28"/><rect height="9" width="8" x="90" y="28"/><rect height="9" width="7" x="98" y="28"/><rect height="9" width="8" x="105" y="28"/><rect height="6" width="7" x="53" y="37"/><rect height="6" width="8" x="60" y="37"/><rect height="6" width="6" x="68" y="37"/><rect height="6" width="9" x="74" y="37"/><rect height="6" width="7" x="83" y="37"/><rect height="6" width="8" x="90" y="37"/><rect height="6" width="7" x="98" y="37"/><rect height="8" width="8" x="60" y="43"/><rect height="8" width="6" x="68" y="43"/><rect height="8" width="9" x="74" y="43"/><rect height="8" width="7" x="83" y="43"/><rect height="7" width="6" x="68" y="51"/><rect height="7" width="9" x="74" y="51"/><rect height="8" width="9" x="74" y="58"/><rect height="7" width="7" x="83" y="51"/><rect height="8" width="8" x="90" y="43"/><rect height="7" width="7" x="83" y="6"/><rect height="7" width="8" x="90" y="6"/><rect height="7" width="7" x="98" y="6"/></g></svg>