<?xml version="1.0" encoding="utf-8"?>
<!-- Generator: Adobe Illustrator 23.0.0, SVG Export Plug-In . SVG Version: 6.00 Build 0)  -->
<svg version="1.1" id="레이어_1" xmlns="http://www.w3.org/2000/svg" xmlns:xlink="http://www.w3.org/1999/xlink" x="0px"
	 y="0px" viewBox="0 0 74 74" style="enable-background:new 0 0 74 74;" xml:space="preserve">
<style type="text/css">
	.st0{fill:#FFDD55;stroke:#B67300;stroke-miterlimit:10;}
	.st1{fill:url(#SVGID_1_);stroke:#B67300;stroke-miterlimit:10;}
	.st2{fill:url(#SVGID_2_);stroke:#B67300;stroke-miterlimit:10;}
	.st3{fill:#FFFFFF;stroke:#B67300;stroke-miterlimit:10;}
	.st4{fill:url(#SVGID_3_);stroke:#B67300;stroke-miterlimit:10;}
</style>
<g>
	<polygon points="10.2,19 13.2,11 32.5,11 32.5,12.5 34.6,12.5 36.8,19 	"/>
	<path d="M32,11.5V12v1h1h1.3l1.8,5.5H10.9l2.6-7H32 M33,10.5H12.9l-3.4,9h28L35,12h-0.5H33V10.5L33,10.5z"/>
</g>
<g>
	<polygon points="10.5,65 10.5,63.5 9,63.5 9,20 71.5,20 71.5,21.5 73,21.5 73,65 	"/>
	<path d="M71,20.5V21v1h1h0.5v42.5H11V64v-1h-1H9.5V20.5H71 M72,19.5H8.5V64H10v1.5h63.5V21H72V19.5L72,19.5z"/>
</g>
<linearGradient id="SVGID_1_" gradientUnits="userSpaceOnUse" x1="39" y1="8.5" x2="39" y2="63.5">
	<stop  offset="1.198083e-07" style="stop-color:#FFDD55"/>
	<stop  offset="1" style="stop-color:#E9BB31"/>
</linearGradient>
<polygon class="st1" points="70,19 70,17.5 35.5,17.5 33,10 32.5,10 31,10 31,8.5 10.9,8.5 7.5,17.5 6.5,17.5 6.5,62 8,62 8,63.5 
	71.5,63.5 71.5,19 "/>
<rect x="20" y="2" class="st3" width="49" height="49"/>
<linearGradient id="SVGID_2_" gradientUnits="userSpaceOnUse" x1="36" y1="28.5" x2="36" y2="63.5">
	<stop  offset="1.198083e-07" style="stop-color:#FFDD55"/>
	<stop  offset="1" style="stop-color:#E9BB31"/>
</linearGradient>
<polygon class="st2" points="64,29.9 64,28.5 0.5,28.5 6.5,62.1 8,62.1 8,63.5 71.5,63.5 65.5,29.9 "/>
<rect x="28.5" y="6.5" width="34" height="2"/>
<rect x="24" y="12" width="34" height="2"/>
<rect x="28.5" y="17.5" width="34" height="2"/>
<rect x="24" y="23" width="34" height="2"/>
</svg>
