<?xml version="1.0" encoding="utf-8"?>
<!-- Generator: Adobe Illustrator 23.0.0, SVG Export Plug-In . SVG Version: 6.00 Build 0)  -->
<svg version="1.1" id="레이어_1" xmlns="http://www.w3.org/2000/svg" xmlns:xlink="http://www.w3.org/1999/xlink" x="0px"
	 y="0px" viewBox="0 0 441.53 333.4" style="enable-background:new 0 0 441.53 333.4;" xml:space="preserve">
<style type="text/css">
	.st0{fill:#7E0000;}
	.st1{fill:#0A007F;}
	.st2{fill:#DE724B;}
	.st3{fill:#378CB1;}
</style>
<g>
	<g>
		<path class="st0" d="M45.28,8.77v99.88h17.68v49.94H27.61v-49.94H9.94V8.77H45.28z M62.96,58.71h32.87v49.94H62.96V58.71z
			 M113.51,8.77h35.35v99.88h-17.68v49.94H95.83v-49.94h17.68V8.77z"/>
	</g>
	<g>
		<path class="st0" d="M226.06,33.02v101.32h21.48v24.25h-78.29v-24.25h21.47V33.02h-21.47V8.77h78.29v24.25H226.06z"/>
	</g>
	<g>
		<path class="st0" d="M337.78,33.02v125.57h-35.35V33.02h-35.35V8.77h106.04v24.25H337.78z"/>
	</g>
	<path class="st1" d="M113.69,183.59v99.88h17.68v49.94H96.02v-49.94H78.34v-99.88H113.69z M131.37,233.52h32.87v49.94h-32.87
		V233.52z M181.91,183.59h35.35v99.88h-17.68v49.94h-35.35v-49.94h17.68V183.59z"/>
	<path class="st1" d="M294.47,207.83v101.32h21.48v24.25h-78.29v-24.25h21.47V207.83h-21.47v-24.25h78.29v24.25H294.47z"/>
	<path class="st1" d="M406.19,207.83V333.4h-35.35V207.83h-35.35v-24.25h106.04v24.25H406.19z"/>
	<path class="st2" d="M35.35,0v99.88h17.68v49.94H17.68V99.88H0V0H35.35z M53.02,49.94h32.87v49.94H53.02V49.94z M103.57,0h35.35
		v99.88h-17.68v49.94H85.89V99.88h17.68V0z"/>
	<path class="st2" d="M216.12,24.25v101.32h21.48v24.25h-78.29v-24.25h21.47V24.25h-21.47V0h78.29v24.25H216.12z"/>
	<path class="st2" d="M327.84,24.25v125.57H292.5V24.25h-35.35V0h106.04v24.25H327.84z"/>
	<path class="st3" d="M103.75,174.82v99.88h17.68v49.94H86.08v-49.94H68.41v-99.88H103.75z M121.43,224.75h32.87v49.94h-32.87
		V224.75z M171.98,174.82h35.35v99.88h-17.68v49.94H154.3v-49.94h17.68V174.82z"/>
	<path class="st3" d="M284.53,199.06v101.32h21.48v24.25h-78.29v-24.25h21.47V199.06h-21.47v-24.25h78.29v24.25H284.53z"/>
	<path class="st3" d="M396.25,199.06v125.57H360.9V199.06h-35.35v-24.25H431.6v24.25H396.25z"/>
</g>
</svg>
