<?xml version="1.0" encoding="utf-8"?>
<!-- Generator: Adobe Illustrator 23.0.0, SVG Export Plug-In . SVG Version: 6.00 Build 0)  -->
<svg version="1.1" id="레이어_1" xmlns="http://www.w3.org/2000/svg" xmlns:xlink="http://www.w3.org/1999/xlink" x="0px"
	 y="0px" viewBox="0 0 147 111" style="enable-background:new 0 0 147 111;" xml:space="preserve">
<style type="text/css">
	.st0{fill:#7E0000;}
	.st1{fill:#0A007F;}
	.st2{fill:#FFFFFF;}
	.st3{fill:#DE724B;}
	.st4{fill:#378CB1;}
</style>
<g>
	<g>
		<path class="st0" d="M15.08,2.92v33.25h5.88V52.8H9.19V36.17H3.31V2.92H15.08z M20.96,19.55h10.94v16.63H20.96V19.55z M37.79,2.92
			h11.77v33.25h-5.88V52.8H31.91V36.17h5.88V2.92z"/>
	</g>
	<g>
		<path class="st0" d="M75.26,10.99v33.73h7.15v8.07H56.35v-8.07h7.15V10.99h-7.15V2.92h26.07v8.07H75.26z"/>
	</g>
	<g>
		<path class="st0" d="M112.46,10.99V52.8h-11.77V10.99H88.92V2.92h35.3v8.07H112.46z"/>
	</g>
	<path class="st1" d="M37.85,61.12v33.25h5.88V111H31.97V94.37h-5.88V61.12H37.85z M43.74,77.75h10.94v16.63H43.74V77.75z
		 M60.56,61.12h11.77v33.25h-5.88V111H54.68V94.37h5.88V61.12z"/>
	<path class="st1" d="M98.04,69.19v33.73h7.15V111H79.12v-8.07h7.15V69.19h-7.15v-8.07h26.07v8.07H98.04z"/>
	<path class="st1" d="M135.23,69.19V111h-11.77V69.19H111.7v-8.07H147v8.07H135.23z"/>
	<g>
		<path class="st2" d="M13.32,1.17v33.25h5.88v16.63H7.44V34.42H1.56V1.17H13.32z M19.21,17.79h10.94v16.63H19.21V17.79z
			 M36.04,1.17h11.77v33.25h-5.88v16.63H30.15V34.42h5.88V1.17z"/>
	</g>
	<g>
		<path class="st2" d="M73.51,9.24v33.73h7.15v8.07H54.59v-8.07h7.15V9.24h-7.15V1.17h26.07v8.07H73.51z"/>
	</g>
	<g>
		<path class="st2" d="M110.71,9.24v41.81H98.94V9.24H87.17V1.17h35.3v8.07H110.71z"/>
	</g>
	<g>
		<path class="st2" d="M36.1,59.37v33.25h5.88v16.63H30.22V92.62h-5.88V59.37H36.1z M41.98,76h10.94v16.63H41.98V76z M58.81,59.37
			h11.77v33.25H64.7v16.63H52.93V92.62h5.88V59.37z"/>
	</g>
	<g>
		<path class="st2" d="M96.29,67.44v33.73h7.15v8.07H77.37v-8.07h7.15V67.44h-7.15v-8.07h26.07v8.07H96.29z"/>
	</g>
	<g>
		<path class="st2" d="M133.48,67.44v41.81h-11.77V67.44h-11.77v-8.07h35.3v8.07H133.48z"/>
	</g>
	<path class="st3" d="M11.77,0v33.25h5.88v16.63H5.88V33.25H0V0H11.77z M17.65,16.63H28.6v16.63H17.65V16.63z M34.48,0h11.77v33.25
		h-5.88v16.63H28.6V33.25h5.88V0z"/>
	<path class="st3" d="M71.95,8.07v33.73h7.15v8.07H53.04v-8.07h7.15V8.07h-7.15V0H79.1v8.07H71.95z"/>
	<path class="st3" d="M109.15,8.07v41.81H97.38V8.07H85.61V0h35.3v8.07H109.15z"/>
	<path class="st4" d="M34.54,58.2v33.25h5.88v16.63H28.66V91.45h-5.88V58.2H34.54z M40.43,74.83h10.94v16.63H40.43V74.83z
		 M57.26,58.2h11.77v33.25h-5.88v16.63H51.37V91.45h5.88V58.2z"/>
	<path class="st4" d="M94.73,66.27v33.73h7.15v8.07H75.81v-8.07h7.15V66.27h-7.15V58.2h26.07v8.07H94.73z"/>
	<path class="st4" d="M131.92,66.27v41.81h-11.77V66.27h-11.77V58.2h35.3v8.07H131.92z"/>
</g>
</svg>
